<?xml version="1.0" encoding="utf-8"?>
<!-- Generator: Adobe Illustrator 19.0.0, SVG Export Plug-In . SVG Version: 6.00 Build 0)  -->
<svg version="1.1" id="Capa_1" xmlns="http://www.w3.org/2000/svg" xmlns:xlink="http://www.w3.org/1999/xlink" x="0px" y="0px"
	 viewBox="0 0 396.8 161.4" style="enable-background:new 0 0 396.8 161.4;" xml:space="preserve">
<style type="text/css">
	.st0{fill:#017BBC;}
	.st1{fill:#FFFFFF;}
	.st2{opacity:0.2;}
	.st3{fill:url(#XMLID_198_);}
	.st4{fill:url(#XMLID_199_);}
	.st5{fill:url(#XMLID_200_);}
	.st6{fill:url(#XMLID_201_);}
	.st7{fill:url(#XMLID_202_);}
</style>
<path id="XMLID_2_" class="st0" d="M369.6,154.4H24c-10.4,0-18.9-8.5-18.9-18.9V29.7c0-10.4,8.5-18.9,18.9-18.9h345.6
	c10.4,0,18.9,8.5,18.9,18.9v105.8C388.5,145.9,380.1,154.4,369.6,154.4z"/>
<g id="XMLID_72_">
	<path id="XMLID_73_" class="st1" d="M158.1,125.6v8.1h-1.3v-8.1h-3v-1.2h7.2v1.2H158.1z"/>
	<path id="XMLID_75_" class="st1" d="M163,124.4h1.3v5.2c0,1,0.2,1.8,0.5,2.3c0.3,0.5,0.8,0.8,1.5,0.8c0.7,0,1.2-0.3,1.5-0.8
		c0.3-0.5,0.5-1.3,0.5-2.3v-5.2h1.3v5.2c0,1.4-0.3,2.5-0.9,3.2c-0.6,0.7-1.4,1.1-2.5,1.1c-1.1,0-1.9-0.4-2.5-1.1
		c-0.6-0.7-0.8-1.8-0.8-3.2V124.4z"/>
	<path id="XMLID_77_" class="st1" d="M181.9,133.1c-0.4,0.3-0.8,0.5-1.2,0.6c-0.4,0.1-0.9,0.2-1.5,0.2c-0.6,0-1.2-0.1-1.7-0.3
		c-0.5-0.2-1-0.5-1.3-0.9c-0.4-0.5-0.7-1-0.9-1.6c-0.2-0.6-0.3-1.3-0.3-2c0-0.7,0.1-1.4,0.3-2c0.2-0.6,0.5-1.1,0.9-1.6
		c0.4-0.4,0.8-0.7,1.3-0.9c0.5-0.2,1.1-0.3,1.7-0.3c0.5,0,0.9,0.1,1.4,0.2s0.8,0.3,1.2,0.6v1.6c-0.3-0.4-0.7-0.7-1.1-0.9
		c-0.4-0.2-0.8-0.3-1.3-0.3c-0.9,0-1.5,0.3-2.1,1c-0.5,0.7-0.8,1.5-0.8,2.6c0,1.1,0.3,2,0.8,2.7c0.5,0.6,1.3,1,2.2,1
		c0.5,0,1-0.1,1.4-0.3c0.4-0.2,0.8-0.5,1.1-0.9V133.1z"/>
	<path id="XMLID_80_" class="st1" d="M185.1,133.7h-1.3v-9.3h1.3V133.7z"/>
	<path id="XMLID_82_" class="st1" d="M193.5,133.7l-3.6-6.2c-0.1-0.1-0.2-0.3-0.3-0.5c-0.1-0.2-0.2-0.5-0.3-0.8
		c0,0.2,0.1,0.5,0.1,0.7c0,0.3,0,0.7,0,1.2v5.6h-1.3v-9.3h1.4l3.5,6c0.1,0.2,0.3,0.5,0.4,0.7c0.1,0.3,0.3,0.6,0.4,0.9
		c0-0.3-0.1-0.7-0.1-1c0-0.3,0-0.7,0-1v-5.6h1.3v9.3H193.5z"/>
	<path id="XMLID_84_" class="st1" d="M197.7,133.7v-9.3h6.9v1.2h-5.6v2.6h5.2v1.2h-5.2v3.1h5.6v1.2H197.7z"/>
	<path id="XMLID_86_" class="st1" d="M216.3,133.7l-0.8-2.4h-3.9l-0.8,2.4h-1.4l3.4-9.3h1.4l3.4,9.3H216.3z M211.9,130.3h3.2
		l-1.6-4.6L211.9,130.3z"/>
	<path id="XMLID_89_" class="st1" d="M222.7,124.4h1.3v5.2c0,1,0.2,1.8,0.5,2.3c0.3,0.5,0.8,0.8,1.5,0.8c0.7,0,1.2-0.3,1.5-0.8
		c0.3-0.5,0.5-1.3,0.5-2.3v-5.2h1.3v5.2c0,1.4-0.3,2.5-0.9,3.2c-0.6,0.7-1.4,1.1-2.5,1.1c-1.1,0-1.9-0.4-2.5-1.1
		c-0.6-0.7-0.8-1.8-0.8-3.2V124.4z"/>
	<path id="XMLID_91_" class="st1" d="M237.7,133.7l-3.6-6.2c-0.1-0.1-0.2-0.3-0.3-0.5c-0.1-0.2-0.2-0.5-0.3-0.8
		c0,0.2,0.1,0.5,0.1,0.7c0,0.3,0,0.7,0,1.2v5.6h-1.3v-9.3h1.4l3.5,6c0.1,0.2,0.3,0.5,0.4,0.7c0.1,0.3,0.3,0.6,0.4,0.9
		c0-0.3-0.1-0.7-0.1-1c0-0.3,0-0.7,0-1v-5.6h1.3v9.3H237.7z"/>
	<path id="XMLID_93_" class="st1" d="M251.3,133.1c-0.4,0.3-0.8,0.5-1.2,0.6c-0.4,0.1-0.9,0.2-1.5,0.2c-0.6,0-1.2-0.1-1.7-0.3
		c-0.5-0.2-1-0.5-1.3-0.9c-0.4-0.5-0.7-1-0.9-1.6c-0.2-0.6-0.3-1.3-0.3-2c0-0.7,0.1-1.4,0.3-2c0.2-0.6,0.5-1.1,0.9-1.6
		c0.4-0.4,0.8-0.7,1.3-0.9c0.5-0.2,1.1-0.3,1.7-0.3c0.5,0,0.9,0.1,1.4,0.2c0.4,0.1,0.8,0.3,1.2,0.6v1.6c-0.3-0.4-0.7-0.7-1.1-0.9
		c-0.4-0.2-0.8-0.3-1.3-0.3c-0.9,0-1.5,0.3-2.1,1c-0.5,0.7-0.8,1.5-0.8,2.6c0,1.1,0.3,2,0.8,2.7c0.5,0.6,1.3,1,2.2,1
		c0.5,0,1-0.1,1.4-0.3s0.8-0.5,1.1-0.9V133.1z"/>
	<path id="XMLID_95_" class="st1" d="M253.2,133.7v-9.3h1.3v8.1h5.3v1.2H253.2z"/>
	<path id="XMLID_97_" class="st1" d="M262.8,133.7h-1.3v-9.3h1.3V133.7z"/>
	<path id="XMLID_99_" class="st1" d="M271.7,133.1c-0.4,0.3-0.8,0.5-1.2,0.6c-0.4,0.1-0.9,0.2-1.5,0.2c-0.6,0-1.2-0.1-1.7-0.3
		c-0.5-0.2-1-0.5-1.3-0.9c-0.4-0.5-0.7-1-0.9-1.6c-0.2-0.6-0.3-1.3-0.3-2c0-0.7,0.1-1.4,0.3-2c0.2-0.6,0.5-1.1,0.9-1.6
		c0.4-0.4,0.8-0.7,1.3-0.9c0.5-0.2,1.1-0.3,1.7-0.3c0.5,0,0.9,0.1,1.4,0.2c0.4,0.1,0.8,0.3,1.2,0.6v1.6c-0.3-0.4-0.7-0.7-1.1-0.9
		c-0.4-0.2-0.8-0.3-1.3-0.3c-0.9,0-1.5,0.3-2.1,1c-0.5,0.7-0.8,1.5-0.8,2.6c0,1.1,0.3,2,0.8,2.7c0.5,0.6,1.3,1,2.2,1
		c0.5,0,1-0.1,1.4-0.3s0.8-0.5,1.1-0.9V133.1z"/>
	<path id="XMLID_101_" class="st1" d="M273.7,133.7v-9.3h1.3v4.4l4-4.4h1.7l-4.1,4.4l4.9,4.9h-1.8l-4.5-4.6v4.6H273.7z"/>
</g>
<g id="XMLID_4_">
	<path id="XMLID_29_" class="st1" d="M165.9,49.6c2.3,0,4.4,0.4,6.4,1.3c2,0.9,3.7,2,5.3,3.5l-4.6,4.6c-2-1.9-4.3-2.9-7-2.9
		c-2.7,0-5,1-7,2.9c-1.9,1.9-2.9,4.3-2.9,7c0,2.7,1,5,2.9,7c1.9,1.9,4.2,2.9,7,2.9c2.7,0,5-1,7-2.9l4.6,4.6
		c-1.5,1.5-3.3,2.7-5.3,3.5c-2,0.9-4.1,1.3-6.4,1.3c-4.5,0-8.4-1.6-11.6-4.8s-4.8-7.1-4.8-11.6c0-4.5,1.6-8.4,4.8-11.6
		C157.5,51.1,161.4,49.5,165.9,49.6L165.9,49.6z"/>
	<path id="XMLID_31_" class="st1" d="M179.9,49.7h6.5v32.5h-6.5V49.7z"/>
	<path id="XMLID_37_" class="st1" d="M209.1,67.6v-18h6.5v33.1l-19.5-18.6v18h-6.5V49.1L209.1,67.6z"/>
	<path id="XMLID_39_" class="st1" d="M238.4,49.7v6.5h-13v6.5h9.7v6.5h-9.7v6.5h13v6.5h-13h-6.5V49.7H238.4z"/>
	<path id="XMLID_41_" class="st1" d="M176.4,86.3v13.1v6.5c0,3.6-1.3,6.7-3.8,9.2c-2.6,2.6-5.6,3.8-9.2,3.8c-3.6,0-6.7-1.3-9.2-3.8
		c-2.6-2.6-3.8-5.6-3.8-9.2v-6.5V86.3h6.5v13.1v5.8v0.7c0,1.8,0.6,3.3,1.9,4.6c1.3,1.3,2.8,1.9,4.6,1.9c1.8,0,3.3-0.6,4.6-1.9
		c1.3-1.3,1.9-2.8,1.9-4.6v-0.7v-5.8V86.3H176.4z"/>
	<path id="XMLID_43_" class="st1" d="M199.1,104.3v-18h6.5v33.1l-19.5-18.6v18h-6.5V85.7L199.1,104.3z"/>
	<path id="XMLID_45_" class="st1" d="M208.8,86.3h6.5v32.5h-6.5V86.3z"/>
	<path id="XMLID_47_" class="st1" d="M232.3,119.4l-14.6-33.1h1.3h4.3h0.3h1l7.7,17.7l7.7-17.7h1.4h5.6L232.3,119.4z"/>
	<path id="XMLID_49_" class="st1" d="M268.9,86.3v6.5h-13v6.5h9.7v6.5h-9.7v6.5h13v6.5h-13h-6.5V86.3H268.9z"/>
	<path id="XMLID_51_" class="st1" d="M271.9,86.3h10.6c3.1,0,6.2,1.1,8.4,3.3c2.2,2.2,3.1,4.3,3.1,7.5v1c0,2.4-0.7,4.2-2.1,6.1
		c-1.4,1.9-2.5,2.5-4.7,3.3l7.3,11.3h-7.9l-8.3-12.7v12.7h-6.5L271.9,86.3z M283,101.9c1.3,0,2-0.3,3-1.3c0.9-0.9,1.3-2,1.3-3.4
		c0-1.3-0.3-2.2-1.3-3.2c-0.9-1-2.6-1.3-4-1.3h-3.6v9.1L283,101.9z"/>
	<path id="XMLID_54_" class="st1" d="M307.3,112.3c1.8,0,3.3-1.5,3.3-3.3c0-1.4-0.5-2.3-1.7-2.7c-2.3-0.9-1.8-0.7-4-1.5
		c-2.4-0.8-4.6-2.5-6.1-4.5c-0.9-1.2-1.3-2.7-1.3-4.5c0-2.7,1-5,2.9-7c1.9-1.9,4.3-2.9,7-2.9c2.7,0,5,1,7,2.9c1.9,1.9,2.9,4.3,2.9,7
		h-6.5c0-1.8-1.5-3.3-3.3-3.3c-1.8,0-3.3,1.5-3.3,3.3c0,1.2,0.5,2.1,1.4,2.7c1.9,1.2,1.7,1,4,1.7c2.5,0.7,4.8,2.3,6.3,4.3
		c0.9,1.2,1.4,2.7,1.4,4.5c0,2.7-1,5-2.9,7c-1.9,1.9-4.3,2.9-7,2.9c-2.7,0-5-1-7-2.9c-1.9-1.9-2.9-4.3-2.9-7h6.6
		C304,110.9,305.5,112.4,307.3,112.3L307.3,112.3z"/>
	<path id="XMLID_70_" class="st1" d="M339.7,86.3v6.5h-13v6.5h9.7v6.5h-9.7v6.5h13v6.5h-13h-6.5V86.3H339.7z"/>
</g>
<g id="XMLID_57_" class="st2">
	<g id="XMLID_69_">
		<path id="XMLID_105_" d="M135.4,76.4c0-0.3,0.1-0.5,0.1-0.7C135.5,75.9,135.4,76.2,135.4,76.4z"/>
		<path id="XMLID_104_" d="M133.2,84.4c0.1-0.3,0.2-0.6,0.3-0.8C133.5,83.9,133.4,84.1,133.2,84.4z"/>
		<path id="XMLID_103_" d="M131,89.1c0.2-0.3,0.4-0.7,0.6-1C131.4,88.4,131.2,88.7,131,89.1z"/>
		<path id="XMLID_12_" d="M106.2,40.2c-4.7,0-8.5,3.8-8.5,8.5c0,4.7,3.8,8.5,8.5,8.5c4.7,0,8.5-3.8,8.5-8.5
			C114.7,44,110.9,40.2,106.2,40.2z M84,93.1c0,4.7,3.8,8.5,8.5,8.5c4.7,0,8.5-3.8,8.5-8.5c0-4.7-3.8-8.5-8.5-8.5
			C87.8,84.6,84,88.4,84,93.1z M68.6,64c0,4.7,3.8,8.5,8.5,8.5c4.7,0,8.5-3.8,8.5-8.5c0-4.7-3.8-8.5-8.5-8.5
			C72.4,55.4,68.6,59.2,68.6,64z M99,107.7c-20.3,0-36.8-16.5-36.8-36.8c0-14.5,8.4-27.1,20.6-33.1c0.8-0.4,1.7-0.8,2.6-1.1l0,0
			c1.1-0.4,2.1-0.8,3.2-1.1c1.1-0.3,2.2-0.6,3.4-0.8c0.5-0.1,1-0.2,1.5-0.3c0.2,0,0.3,0,0.5-0.1c0.5-0.1,1-0.1,1.6-0.2
			c0.6-0.1,1.2-0.1,1.8-0.1s1.2,0,1.8,0c20.3,0,36.8,16.5,36.8,36.8c0,0.4,0,0.9,0,1.3c0,0.4,0,0.8-0.1,1.1c0,0.1,0,0.3,0,0.4
			c0,0.3-0.1,0.6-0.1,1c0,0.3-0.1,0.6-0.1,1c0,0.3-0.1,0.5-0.1,0.7c-0.1,0.8-0.3,1.5-0.4,2.2c-0.1,0.3-0.1,0.6-0.2,0.9
			c-0.1,0.4-0.2,0.8-0.3,1.1c-0.1,0.4-0.3,0.9-0.4,1.3c-0.1,0.3-0.2,0.6-0.3,0.9c-0.1,0.2-0.1,0.4-0.2,0.6c-0.1,0.3-0.2,0.6-0.3,0.8
			c-0.5,1.2-1,2.5-1.7,3.6c-0.2,0.3-0.4,0.7-0.6,1c-1.1,1.9-2.4,3.8-3.8,5.5c-0.5,0.6-1,1.2-1.6,1.8v0c-0.3,0.3-0.6,0.6-0.8,0.8
			c-0.3,0.3-0.6,0.6-0.9,0.8c-0.6,0.5-1.2,1.1-1.8,1.5c-0.9,0.8-1.9,1.5-2.9,2.1c-0.7,0.4-1.3,0.9-2,1.3l0,0
			c-0.8,0.5-1.6,0.9-2.5,1.3C109.9,106.5,104.6,107.7,99,107.7z M104,70.9c0-2.8-2.3-5.1-5.1-5.1c-2.8,0-5.1,2.3-5.1,5.1
			c0,2.8,2.3,5.1,5.1,5.1C101.8,76,104,73.7,104,70.9z M130,77.6c0-4.7-3.8-8.5-8.5-8.5c-4.7,0-8.5,3.8-8.5,8.5
			c0,4.7,3.8,8.5,8.5,8.5C126.1,86.1,130,82.3,130,77.6z"/>
		<path id="XMLID_11_" d="M96.5,115.8c-23.8-1.3-42.7-21-42.7-45.1C53.8,53,64.1,37.6,79,30.2c0.8-0.4,1.7-0.8,2.6-1.2l1.9,3.9
			l1.8,3.7c-0.9,0.3-1.7,0.7-2.6,1.1L81,34.2C67.7,41,58.6,54.8,58.6,70.7c0,22.7,18.4,41.1,41.1,41.1c6.1,0,11.8-1.3,17-3.7
			l-1.9-3.9c0.9-0.4,1.7-0.8,2.5-1.3l1.9,4l1.6,3.4c-0.8,0.4-1.6,0.9-2.5,1.3c-5.1,2.4-10.7,3.9-16.6,4.3v3.9h2.3v4.2
			c7.7,0.4,13.3,1.6,13.3,3c0,1.7-8.4,3.1-18.8,3.1c-10.4,0-18.8-1.4-18.8-3.1c0-1.5,6.5-2.8,15.1-3.1v-4.2h1.6V115.8z"/>
	</g>
	<g id="XMLID_68_">
	</g>
</g>
<g id="XMLID_3_">
	<g id="XMLID_36_">
		<linearGradient id="XMLID_198_" gradientUnits="userSpaceOnUse" x1="126.8552" y1="74.3324" x2="126.9643" y2="74.3324">
			<stop  offset="0" style="stop-color:#FFCB06"/>
			<stop  offset="1" style="stop-color:#FCAE21"/>
		</linearGradient>
		<path id="XMLID_78_" class="st3" d="M126.9,74.7c0-0.3,0.1-0.5,0.1-0.7C126.9,74.2,126.9,74.5,126.9,74.7z"/>
		<linearGradient id="XMLID_199_" gradientUnits="userSpaceOnUse" x1="124.7167" y1="82.2698" x2="125.0331" y2="82.2698">
			<stop  offset="0" style="stop-color:#FFCB06"/>
			<stop  offset="1" style="stop-color:#FCAE21"/>
		</linearGradient>
		<path id="XMLID_55_" class="st4" d="M124.7,82.7c0.1-0.3,0.2-0.6,0.3-0.8C124.9,82.1,124.8,82.4,124.7,82.7z"/>
		<linearGradient id="XMLID_200_" gradientUnits="userSpaceOnUse" x1="122.4801" y1="86.8412" x2="123.0474" y2="86.8412">
			<stop  offset="0" style="stop-color:#FFCB06"/>
			<stop  offset="1" style="stop-color:#FCAE21"/>
		</linearGradient>
		<path id="XMLID_28_" class="st5" d="M122.5,87.4c0.2-0.3,0.4-0.7,0.6-1C122.9,86.7,122.7,87,122.5,87.4z"/>
		<linearGradient id="XMLID_201_" gradientUnits="userSpaceOnUse" x1="53.5914" y1="69.1772" x2="127.2698" y2="69.1772">
			<stop  offset="0" style="stop-color:#FFCB06"/>
			<stop  offset="1" style="stop-color:#FCAE21"/>
		</linearGradient>
		<path id="XMLID_5_" class="st6" d="M97.7,55.6c4.7,0,8.5-3.8,8.5-8.5c0-4.7-3.8-8.5-8.5-8.5c-4.7,0-8.5,3.8-8.5,8.5
			C89.1,51.7,92.9,55.6,97.7,55.6z M60.1,62.2c0,4.7,3.8,8.5,8.5,8.5c4.7,0,8.5-3.8,8.5-8.5c0-4.7-3.8-8.5-8.5-8.5
			C63.9,53.7,60.1,57.5,60.1,62.2z M90.4,106c-20.3,0-36.8-16.5-36.8-36.8c0-14.5,8.4-27.1,20.6-33.1c0.8-0.4,1.7-0.8,2.6-1.1l0,0
			c1.1-0.4,2.1-0.8,3.2-1.1s2.2-0.6,3.4-0.8c0.5-0.1,1-0.2,1.5-0.3c0.2,0,0.3,0,0.5-0.1c0.5-0.1,1-0.1,1.6-0.2
			c0.6-0.1,1.2-0.1,1.8-0.1s1.2,0,1.8,0c20.3,0,36.8,16.5,36.8,36.8c0,0.4,0,0.9,0,1.3c0,0.4,0,0.8-0.1,1.1c0,0.1,0,0.3,0,0.4
			c0,0.3-0.1,0.6-0.1,1c0,0.3-0.1,0.6-0.1,1c0,0.3-0.1,0.5-0.1,0.7c-0.1,0.8-0.3,1.5-0.4,2.2c-0.1,0.3-0.1,0.6-0.2,0.9
			c-0.1,0.4-0.2,0.8-0.3,1.1c-0.1,0.4-0.3,0.9-0.4,1.3c-0.1,0.3-0.2,0.6-0.3,0.9c-0.1,0.2-0.1,0.4-0.2,0.6c-0.1,0.3-0.2,0.6-0.3,0.8
			c-0.5,1.2-1,2.5-1.7,3.6c-0.2,0.3-0.4,0.7-0.6,1c-1.1,1.9-2.4,3.8-3.8,5.5c-0.5,0.6-1,1.2-1.6,1.8v0c-0.3,0.3-0.6,0.6-0.8,0.8
			c-0.3,0.3-0.6,0.6-0.9,0.8c-0.6,0.5-1.2,1.1-1.8,1.5c-0.9,0.8-1.9,1.5-2.9,2.1c-0.7,0.4-1.3,0.9-2,1.3l0,0
			c-0.8,0.5-1.6,0.9-2.5,1.3C101.4,104.8,96.1,106,90.4,106z M75.5,91.4c0,4.7,3.8,8.5,8.5,8.5c4.7,0,8.5-3.8,8.5-8.5
			c0-4.7-3.8-8.5-8.5-8.5C79.3,82.9,75.5,86.7,75.5,91.4z M95.5,69.2c0-2.8-2.3-5.1-5.1-5.1c-2.8,0-5.1,2.3-5.1,5.1
			c0,2.8,2.3,5.1,5.1,5.1C93.2,74.3,95.5,72,95.5,69.2z M121.4,75.8c0-4.7-3.8-8.5-8.5-8.5c-4.7,0-8.5,3.8-8.5,8.5
			c0,4.7,3.8,8.5,8.5,8.5C117.6,84.4,121.4,80.6,121.4,75.8z"/>
		<linearGradient id="XMLID_202_" gradientUnits="userSpaceOnUse" x1="45.2667" y1="77.8783" x2="112.2461" y2="77.8783">
			<stop  offset="0" style="stop-color:#FFCB06"/>
			<stop  offset="1" style="stop-color:#FCAE21"/>
		</linearGradient>
		<path id="XMLID_1_" class="st7" d="M76.7,35c-0.9,0.3-1.7,0.7-2.6,1.1l-1.8-3.6C59.2,39.3,50.1,53.1,50.1,69
			c0,22.7,18.4,41.1,41.1,41.1c6.1,0,11.8-1.3,17-3.7l-1.9-3.9c0.9-0.4,1.7-0.8,2.5-1.3l1.9,4l1.6,3.4c-0.8,0.4-1.6,0.9-2.5,1.3
			c-5.1,2.4-10.7,3.9-16.6,4.3v3.9h2.3v4.2c7.7,0.4,13.3,1.6,13.3,3c0,1.7-8.4,3.1-18.8,3.1c-10.4,0-18.8-1.4-18.8-3.1
			c0-1.5,6.5-2.8,15.1-3.1v-4.2H88v-3.9c-23.8-1.3-42.7-21-42.7-45.1c0-17.8,10.3-33.2,25.2-40.5c0.8-0.4,1.7-0.8,2.6-1.2l1.9,3.9
			L76.7,35z"/>
	</g>
	<g id="XMLID_35_">
	</g>
</g>
</svg>
